<svg width="169" height="60" viewBox="0 0 169 60" fill="none" xmlns="http://www.w3.org/2000/svg">
<path d="M168.189 14.6362H159.483L154.443 35.981L153.735 38.912C153.247 39.0442 152.763 39.1763 152.275 39.2658C151.393 39.4446 150.464 39.5301 149.492 39.5301C148.385 39.5301 147.502 39.3513 146.84 39.0403C146.221 38.7293 145.733 38.2862 145.47 37.6642C145.203 37.0889 145.118 36.3775 145.16 35.5768C145.203 34.776 145.381 33.8897 145.601 33.0034L148.253 21.9092L149.976 14.5429H141.092L137.07 31.5846C136.582 33.6254 136.319 35.5807 136.23 37.4426C136.14 39.3046 136.45 40.9023 137.07 42.3678C137.689 43.7866 138.792 44.8984 140.294 45.7419C141.796 46.5854 143.964 46.9858 146.705 46.9858C148.605 46.9858 150.285 46.8109 151.698 46.4999C151.741 46.4999 151.83 46.4571 151.876 46.4571C151.478 48.2336 150.684 49.6525 149.445 50.7603C148.164 51.8682 146.306 52.4474 143.832 52.4474C142.772 52.4474 141.8 52.4046 140.914 52.2725L139.191 59.5066C140.341 59.6388 141.622 59.7282 143.035 59.7282C145.687 59.7282 147.986 59.4172 149.972 58.8419C151.962 58.2199 153.642 57.3336 155.097 56.0897C156.51 54.8458 157.706 53.2948 158.678 51.4756C159.65 49.6136 160.401 47.4367 160.977 44.8634L166.989 19.4797L168.181 14.644L168.189 14.6362ZM131.727 32.8751C131.197 35.0947 131.019 37.3571 131.24 39.5767C131.46 41.8391 132.343 45.256 133.183 46.9897H124.787C123.769 45.2599 123.815 44.4163 123.594 43.8838C122.487 44.7701 121.295 45.5242 119.971 46.1034C118.647 46.6826 117.188 46.9897 115.508 46.9897C113.564 46.9897 111.884 46.636 110.514 45.9674C109.144 45.3026 107.994 44.3697 107.111 43.2152C106.229 42.0607 105.609 40.7312 105.211 39.1763C104.812 37.6215 104.638 35.981 104.638 34.2046C104.638 31.4952 105.125 28.9685 106.054 26.57C107.026 24.1716 108.354 22.088 110.034 20.3116C111.714 18.5351 115.825 14.5857 122.541 14.5857H136.02L131.731 32.8674L131.727 32.8751ZM125.584 22.0025C121.519 22.0025 120.768 22.0025 119.088 22.8461C117.896 23.468 116.921 24.401 116.084 25.4661C115.248 26.5312 114.536 27.7751 114.052 29.1939C113.564 30.6128 113.301 32.0782 113.301 33.5865C113.301 35.4485 113.611 36.9606 114.23 38.0685C114.85 39.1763 115.999 39.7089 117.675 39.7089C118.558 39.7089 119.398 39.5301 120.106 39.1763C120.815 38.8226 121.608 38.2434 122.406 37.3999C122.495 36.4242 122.627 35.4018 122.805 34.3367C122.983 33.2716 123.203 32.2493 123.378 31.363L125.588 21.9986M102.253 27.4563C102.253 30.3407 101.765 32.9607 100.84 35.3552C99.911 37.7497 98.5871 39.7944 96.907 41.5242C95.227 43.2541 93.2372 44.5874 90.8952 45.5631C88.5532 46.5388 86.0331 47.0286 83.2924 47.0286C81.9646 47.0286 80.6407 46.8964 79.2704 46.6748L76.6187 57.3686H67.9126L78.0316 14.6751H89.6565C91.8669 14.6751 93.7676 15.0288 95.3121 15.6935C96.9032 16.3583 98.1845 17.2912 99.2452 18.4457C100.263 19.6002 101.014 20.9763 101.498 22.5273C102.028 24.0356 102.249 25.6799 102.249 27.4524L102.253 27.4563ZM80.9078 39.5728C81.5698 39.7517 82.4098 39.7944 83.3815 39.7944C84.9299 39.7944 86.3003 39.5262 87.5816 38.9509C88.8203 38.3756 89.9236 37.5748 90.8062 36.5564C91.6888 35.534 92.3546 34.294 92.885 32.8712C93.3727 31.4485 93.636 29.8547 93.636 28.121C93.636 26.3873 93.2837 24.9685 92.5327 23.814C91.7817 22.6167 90.5004 21.9948 88.6423 21.9948H85.1931L80.9078 39.569V39.5728ZM62.6131 39.5728C61.506 39.5728 60.6234 39.394 59.9614 39.0831C59.342 38.7721 58.8543 38.3289 58.591 37.707C58.3239 37.1317 58.2388 36.4203 58.2813 35.6195C58.3239 34.8188 58.502 33.9325 58.7226 33.0462L61.3743 21.952H71.2727L73.0844 14.5857H63.1396L65.439 5.26407L56.1561 6.72956L50.2798 31.6701C49.7921 33.7109 49.5288 35.6662 49.4398 37.5282C49.3507 39.3901 49.6604 40.9917 50.2798 42.4533C50.8992 43.8721 52.0024 44.9839 53.5044 45.8274C55.0064 46.6709 57.1742 47.0713 59.9111 47.0713C61.8118 47.0713 63.4918 46.8925 64.9048 46.5815C65.0364 46.5349 65.257 46.4921 65.3886 46.4494L67.2003 38.8615C66.5809 39.0831 65.9616 39.2152 65.3886 39.3046C64.506 39.4834 63.577 39.5728 62.6053 39.5728H62.6131ZM40.4705 14.6323L32.7786 47.0286H41.4847L49.1301 14.6323H40.4666H40.4705ZM50.0592 10.9045L51.3869 5.26796H42.6809L41.3531 10.9045H50.0592ZM21.2002 14.6751C23.0545 14.6751 24.6919 15.0288 26.0623 15.6935C27.4327 16.3583 28.5359 17.2484 29.465 18.4029C30.3476 19.5575 31.0134 20.8869 31.4547 22.399C31.896 23.9073 32.1167 25.5516 32.1167 27.3242C32.1167 30.0297 31.6289 32.5603 30.6147 35.0015C29.5966 37.3999 28.2727 39.5262 26.5501 41.3027C24.8274 43.0791 22.7951 44.498 20.4531 45.5203C18.1111 46.5427 15.591 47.0713 12.8503 47.0713C12.498 47.0713 11.8786 47.0713 10.996 47.0286C10.1134 47.0286 9.09533 46.9392 7.99207 46.7604C6.84236 46.5815 5.65007 46.36 4.41132 46.049C3.17644 45.7458 1.97641 45.3143 0.830566 44.7623L10.9418 2.07654L20.0041 0.653809L16.4233 15.7868C17.2169 15.4331 17.9253 15.1649 18.7227 14.9899C19.4737 14.7684 20.3137 14.679 21.1963 14.679L21.2002 14.6751ZM13.5974 39.7944C14.9678 39.7944 16.2491 39.4834 17.4414 38.7721C18.6492 38.0996 19.7176 37.1939 20.5808 36.1093C21.4635 34.9976 22.1719 33.7109 22.6596 32.3348C23.1474 30.916 23.4106 29.4505 23.4106 27.9422C23.4106 26.0764 23.1009 24.6148 22.4815 23.5496C21.8622 22.4845 20.5808 21.9948 18.9008 21.9948C18.3705 21.9948 17.7975 22.0414 16.9111 22.263C16.0284 22.4418 15.2775 22.8849 14.569 23.5069L10.7676 39.6156C11.9174 39.7944 12.2696 39.8372 12.5793 39.8372C12.8 39.7944 13.1522 39.7944 13.5974 39.7944Z" fill="#002855"/>
</svg>
