<svg width="179" height="31" viewBox="0 0 179 31" fill="none" xmlns="http://www.w3.org/2000/svg">
<path d="M8.82557 1.0293H0.703125V29.4772H8.82557C13.1061 29.4772 16.2568 28.4421 18.9655 26.1791C22.2145 23.4739 24.1337 19.4355 24.1337 15.2532C24.0846 6.88518 17.8322 1.0293 8.82557 1.0293ZM15.3235 22.3898C13.6008 23.9651 11.3377 24.6528 7.74492 24.6528H6.26779V5.85365H7.74492C11.3377 5.85365 13.5026 6.49221 15.3235 8.16582C17.2427 9.88856 18.376 12.4955 18.376 15.2532C18.376 17.9619 17.2427 20.667 15.3235 22.3898Z" fill="#231F20"/>
<path d="M32.1998 1.0293H26.6387V29.4772H32.1998V1.0293Z" fill="#231F20"/>
<path d="M45.7364 11.9583C42.3892 10.7268 41.4559 9.89177 41.4559 8.36552C41.4559 6.59367 43.1786 5.21478 45.589 5.21478C47.2626 5.21478 48.5924 5.90247 50.066 7.52696L52.9711 3.73765C50.6098 1.67108 47.7538 0.586914 44.6031 0.586914C39.5823 0.586914 35.7438 4.0815 35.7438 8.70936C35.7438 12.646 37.5157 14.6144 42.733 16.4845C44.8978 17.2704 46.0311 17.7651 46.5714 18.1089C47.7047 18.8458 48.245 19.8808 48.245 21.0632C48.245 23.3754 46.4241 25.049 43.9645 25.049C41.3085 25.049 39.1893 23.7192 37.9122 21.2597L34.3193 24.7051C36.8771 28.4453 39.9296 30.1189 44.161 30.1189C49.9187 30.1189 53.9536 26.2805 53.9536 20.7685C53.9536 16.2915 52.0835 14.2705 45.7329 11.9583H45.7364Z" fill="#231F20"/>
<path d="M55.6797 15.2529C55.6797 23.621 62.2268 30.0663 70.6896 30.0663C73.0508 30.0663 75.1174 29.5751 77.6296 28.3927V21.8456C75.4157 24.0596 73.4473 24.9472 70.9352 24.9472C65.374 24.9472 61.3882 20.9123 61.3882 15.1547C61.3882 9.39705 65.4722 5.41126 70.6896 5.41126C73.3456 5.41126 75.3174 6.34806 77.6296 8.61112V2.06404C75.2192 0.832515 73.2017 0.341309 70.7878 0.341309C62.4197 0.390429 55.6797 6.98663 55.6797 15.2529Z" fill="#231F20"/>
<path d="M121.579 20.1267L114 1.0293H107.948L120.052 30.2175H123.007L135.311 1.0293H129.308L121.579 20.1267Z" fill="#231F20"/>
<path d="M137.82 29.4772H153.521V24.6563H143.332V16.976H153.128V12.1551H143.332V5.85365H153.521V1.0293H137.82V29.4772Z" fill="#231F20"/>
<path d="M175.471 9.44647C175.471 4.13091 171.829 1.0293 165.429 1.0293H157.208V29.4772H162.77V18.0601H163.506L171.183 29.4772H178.025L169.068 17.5163C173.152 16.6321 175.467 13.7761 175.467 9.44647H175.471ZM164.349 14.1235H162.724V5.5098H164.447C167.892 5.5098 169.762 6.93781 169.762 9.74119C169.762 12.5446 167.892 14.1199 164.349 14.1199V14.1235Z" fill="#231F20"/>
<path d="M94.5588 30.4594C102.903 30.4594 109.667 23.6952 109.667 15.3513C109.667 7.00729 102.903 0.243164 94.5588 0.243164C86.2148 0.243164 79.4507 7.00729 79.4507 15.3513C79.4507 23.6952 86.2148 30.4594 94.5588 30.4594Z" fill="url(#paint0_linear_0_3785)"/>
<path opacity="0.65" d="M94.5588 30.4594C102.903 30.4594 109.667 23.6952 109.667 15.3513C109.667 7.00729 102.903 0.243164 94.5588 0.243164C86.2148 0.243164 79.4507 7.00729 79.4507 15.3513C79.4507 23.6952 86.2148 30.4594 94.5588 30.4594Z" fill="url(#paint1_linear_0_3785)"/>
<defs>
<linearGradient id="paint0_linear_0_3785" x1="102.302" y1="27.4771" x2="91.8326" y2="11.0813" gradientUnits="userSpaceOnUse">
<stop stop-color="#F89F20"/>
<stop offset="0.25" stop-color="#F79A20"/>
<stop offset="0.53" stop-color="#F68D20"/>
<stop offset="0.62" stop-color="#F58720"/>
<stop offset="0.72" stop-color="#F48120"/>
<stop offset="1" stop-color="#F37521"/>
</linearGradient>
<linearGradient id="paint1_linear_0_3785" x1="100.65" y1="27.2525" x2="85.3452" y2="-2.65846" gradientUnits="userSpaceOnUse">
<stop stop-color="#F58720"/>
<stop offset="0.36" stop-color="#E16F27"/>
<stop offset="0.7" stop-color="#D4602C"/>
<stop offset="0.98" stop-color="#D05B2E"/>
</linearGradient>
</defs>
</svg>
