<svg width="119" height="42" viewBox="0 0 119 42" fill="none" xmlns="http://www.w3.org/2000/svg">
<path d="M94.4376 4.89306L104.256 3.13445V40.8248H94.4376V4.89306ZM108.772 4.89306V40.8248H118.595V3.13445L108.772 4.89306ZM80.452 40.8248H90.2752V13.2594H80.452V40.8248ZM15.5448 17.1565C14.3013 17.0732 11.4293 16.8911 11.4293 14.3C11.4293 11.1783 15.5657 11.1783 17.1213 11.1783C19.8529 11.1783 23.3857 11.9847 25.9092 12.7391C25.9092 12.7391 27.3192 13.2334 28.5159 13.7433L28.6251 13.7745V5.22605L28.4742 5.17922C25.4981 4.13863 22.033 3.13445 15.6125 3.13445C4.53535 3.13445 0.612305 9.58614 0.612305 15.1117C0.612305 18.2959 1.97548 25.7934 14.6551 26.6571C15.7322 26.7247 18.5834 26.886 18.5834 29.5604C18.5834 31.7664 16.2472 33.0724 12.319 33.0724C8.01614 33.0724 3.83815 31.9745 1.2991 30.934V39.7426C5.09727 40.7364 9.37412 41.2358 14.395 41.2358C25.2224 41.2358 30.0716 35.1328 30.0716 29.0869C30.0716 22.2294 24.6448 17.7756 15.5448 17.1617V17.1565ZM74.9212 12.8536C65.842 13.145 61.2374 17.2189 61.2374 25.3147V40.8248H71.1438V28.1764C71.1438 23.3272 71.7786 21.2512 77.5331 21.0535V12.9993C76.5653 12.7912 74.9264 12.8588 74.9264 12.8588L74.9212 12.8536ZM48.2768 13.2282C48.0582 13.7797 46.4869 18.2179 42.6836 22.8225V3.13445L32.5482 5.1376V40.8248H42.6836V29.7945C45.618 34.1962 47.0697 40.8248 47.0697 40.8248H59.2082C58.0063 35.8352 52.7565 26.6259 52.7565 26.6259C57.4704 20.6477 59.5412 14.2792 59.869 13.223H48.2768V13.2282ZM85.3688 10.6163C88.0431 10.6163 90.2128 8.45189 90.2128 5.77756C90.2128 3.10324 88.0431 0.933594 85.3688 0.933594C82.6945 0.933594 80.53 3.10324 80.53 5.77756C80.53 8.45189 82.6997 10.6163 85.3688 10.6163Z" fill="#862165"/>
</svg>
