<svg width="186" height="75" viewBox="0 0 186 75" fill="none" xmlns="http://www.w3.org/2000/svg">
<path d="M120.167 18.2012C127.476 18.2012 134.367 24.9782 134.409 37.416C134.409 51.0116 127.601 57.1875 120.125 57.1875C116.449 57.1874 114.235 55.6004 112.732 54.4854L112.691 66.623L102.25 68.8965V18.8877H111.438L111.981 21.5469C113.443 20.1744 116.074 18.2012 120.167 18.2012ZM31.0815 18.2012C34.5479 18.2012 37.9726 18.7586 41.439 20.1738V30.2529C38.2649 28.4946 34.2556 27.5079 31.0815 27.5078C28.868 27.5078 27.5308 28.1516 27.5308 29.8242C27.5308 34.6278 43.4441 32.3548 43.4858 45.1357C43.4858 52.8129 37.513 57.2305 28.8257 57.2305C25.2339 57.2304 21.3075 56.5017 17.4233 54.7861V44.5781C20.9316 46.551 25.3591 48.0087 28.8257 48.0088C31.1646 48.0088 32.8354 47.3655 32.8354 45.3926C32.8345 40.2893 16.9644 42.1759 16.9644 30.3389C16.9644 22.7475 22.6031 18.2012 31.0815 18.2012ZM55.7222 18.9307H63.6577V28.0654H55.7222V43.291C55.7222 49.6385 62.321 47.666 63.6577 47.1084V55.8154C62.2794 56.5873 59.7735 57.2304 56.3491 57.2305C50.1678 57.2305 45.5318 52.5555 45.5317 46.208L45.5728 11.8535L55.7642 9.62305L55.7222 18.9307ZM152.244 18.2012C162.142 18.2013 167.321 26.8652 167.321 37.8447C167.321 38.8741 167.237 41.1046 167.237 41.6621H146.814C147.274 46.7227 150.865 48.1807 154.917 48.1807C159.051 48.1806 162.309 47.2804 165.149 45.8223V54.3994C162.309 56.0292 158.55 57.1875 153.58 57.1875C143.389 57.1874 136.289 50.6683 136.289 37.7588C136.289 26.865 142.303 18.2012 152.244 18.2012ZM76.6479 22.1045C79.1121 17.4725 83.9989 18.416 85.3354 18.9307V28.7949C84.0407 28.3231 79.8641 27.723 77.3999 31.0254V56.458H66.9585V18.9307H75.979L76.6479 22.1045ZM98.3647 56.458H87.8813V18.9307H98.3647V56.458ZM117.661 27.7227C115.28 27.7227 113.777 28.5805 112.691 29.8242L112.733 45.7363C113.735 46.8512 115.197 47.7519 117.661 47.752C121.503 47.752 124.092 43.4628 124.092 37.7158C124.092 32.0974 121.461 27.7227 117.661 27.7227ZM152.202 26.9072C149.57 26.9072 146.688 28.9233 146.688 33.7695H157.463C157.463 28.9236 154.749 26.9075 152.202 26.9072ZM98.3657 13.3545L87.8823 15.6709V6.92188L98.3657 4.64844V13.3545Z" fill="#6461FC"/>
</svg>
